<?xml version="1.0" standalone="no"?>
<!DOCTYPE svg PUBLIC "-//W3C//DTD SVG 20010904//EN"
 "http://www.w3.org/TR/2001/REC-SVG-20010904/DTD/svg10.dtd">
<svg version="1.0" xmlns="http://www.w3.org/2000/svg"
 width="700.000000pt" height="700.000000pt" viewBox="0 0 700.000000 700.000000"
 preserveAspectRatio="xMidYMid meet">
<metadata>
Created by potrace 1.11, written by Peter Selinger 2001-2013
</metadata>
<g transform="translate(0.000000,700.000000) scale(0.100000,-0.100000)"
fill="#000000" stroke="none">
<path d="M653 6986 c-223 -70 -551 -391 -629 -615 l-24 -69 2 -2820 3 -2819
47 -94 c103 -206 326 -425 538 -528 l75 -36 2835 0 2835 0 75 36 c212 103 435
322 538 528 l47 94 3 2819 c2 2816 2 2818 -18 2879 -71 210 -330 482 -570 598
l-75 36 -2820 2 c-2307 1 -2828 -1 -2862 -11z m3122 -417 c570 -42 1088 -219
1552 -530 204 -137 474 -388 631 -587 265 -334 449 -709 562 -1144 l38 -148
-148 0 -149 0 -11 43 c-178 706 -561 1251 -1150 1637 -336 219 -724 361 -1165
427 -172 25 -640 25 -810 0 -775 -116 -1397 -474 -1840 -1059 -625 -826 -730
-2029 -261 -2983 143 -290 305 -514 537 -740 431 -420 950 -665 1599 -757 126
-17 611 -17 740 0 560 77 1024 267 1415 580 109 87 309 287 398 397 229 283
417 655 513 1013 l27 102 149 0 c138 0 149 -1 144 -17 -3 -10 -15 -56 -26
-103 -102 -404 -294 -800 -551 -1130 -94 -121 -306 -338 -429 -441 -194 -160
-382 -281 -605 -389 -784 -380 -1714 -422 -2555 -114 -52 20 -176 75 -275 124
-341 168 -607 368 -872 655 -423 457 -690 1055 -769 1720 -20 171 -23 540 -5
710 98 943 574 1741 1336 2242 559 368 1273 545 1980 492z m59 -390 c513 -47
1028 -254 1422 -575 119 -96 320 -305 411 -425 200 -267 348 -570 444 -908 16
-58 29 -106 29 -108 0 -2 -67 -3 -148 -3 l-148 0 -23 78 c-245 832 -904 1438
-1760 1616 -197 41 -295 50 -531 50 -283 0 -443 -21 -695 -91 -526 -146 -995
-487 -1299 -943 -264 -396 -397 -851 -397 -1360 -1 -419 76 -759 251 -1115
324 -659 905 -1101 1645 -1250 190 -38 323 -48 568 -42 270 6 419 29 654 98
589 172 1083 572 1377 1112 60 111 110 227 161 377 l42 125 151 3 151 3 -15
-53 c-114 -399 -269 -704 -503 -996 -316 -392 -770 -696 -1259 -841 -569 -169
-1197 -159 -1742 27 -987 337 -1652 1190 -1760 2256 -16 156 -7 574 15 711 68
425 210 795 427 1119 453 674 1193 1090 2041 1146 134 8 322 4 491 -11z m-22
-384 c754 -88 1399 -532 1737 -1193 61 -121 97 -206 150 -354 l30 -88 -153 0
-153 0 -33 91 c-67 189 -191 406 -320 564 -120 146 -307 310 -471 413 -146 92
-380 190 -569 237 -506 128 -1087 48 -1523 -208 -263 -155 -511 -397 -667
-652 -105 -170 -197 -396 -245 -600 -42 -180 -50 -259 -50 -510 0 -266 16
-386 75 -592 228 -790 875 -1328 1699 -1412 701 -72 1388 219 1797 761 121
161 194 297 294 546 9 21 13 22 161 22 117 0 150 -3 146 -12 -2 -7 -21 -60
-42 -118 -49 -138 -158 -362 -235 -480 -178 -272 -442 -527 -717 -693 -94 -57
-316 -161 -418 -195 -434 -147 -903 -168 -1344 -61 -900 220 -1541 930 -1686
1869 -23 146 -30 449 -16 606 38 399 168 774 379 1090 377 563 960 904 1672
977 96 10 388 5 502 -8z m-91 -375 c696 -71 1252 -478 1534 -1124 30 -70 55
-129 55 -131 0 -3 -69 -5 -154 -5 l-153 0 -47 98 c-100 206 -228 373 -391 510
-207 174 -435 285 -708 344 -89 19 -132 22 -327 22 -195 0 -238 -3 -327 -22
-302 -66 -550 -194 -757 -392 -319 -306 -485 -685 -503 -1150 -25 -671 297
-1248 856 -1534 508 -260 1135 -226 1609 87 236 156 408 350 536 605 l46 92
155 0 155 0 -9 -22 c-250 -646 -743 -1059 -1426 -1195 -72 -14 -140 -18 -340
-18 -234 0 -258 2 -376 28 -257 55 -469 141 -664 271 -460 307 -753 795 -819
1366 -125 1075 546 2002 1558 2154 182 28 331 32 497 16z"/>
</g>
</svg>
